<?xml version="1.0" encoding="iso-8859-1"?>
<!-- Generator: Adobe Illustrator 19.0.0, SVG Export Plug-In . SVG Version: 6.00 Build 0)  -->
<svg version="1.1" id="Capa_1" xmlns="http://www.w3.org/2000/svg" xmlns:xlink="http://www.w3.org/1999/xlink" x="0px" y="0px"
	 viewBox="0 0 512 512" style="enable-background:new 0 0 512 512;" xml:space="preserve">
<path style="fill:#EFEDEE;" d="M173.529,390.99l-15.457-37.061l-37.061-15.457c-9.052,7.365-18.011,14.309-26.868,20.745
	l0.664,36.108l25.775,29.68l32.203-7.147C159.22,409.001,166.163,400.042,173.529,390.99z"/>
<path style="fill:#596674;" d="M109.069,498.829c-13.239,13.239-45.449,2.507-71.927-23.97
	c-26.478-26.478-37.209-58.688-23.97-71.927c25.54-7.732,52.736-23.181,80.971-43.715c5.983,11.606,14.574,23.197,25.009,33.632
	s22.026,19.026,33.632,25.009C132.25,446.093,116.801,473.289,109.069,498.829z"/>
<path style="fill:#EFEDEE;" d="M419.717,106.782l-16.42-24.384l-22.494,2.671c-7.381,7.444-15.152,15.34-23.322,23.635v14.269
	l32.236,30.227l13.58,1.32c8.295-8.17,16.191-15.941,23.635-23.322L419.717,106.782z"/>
<path style="fill:#596674;" d="M173.529,390.99c-10.138-4.14-21.221-11.848-30.945-21.573c-9.732-9.732-17.425-20.815-21.573-30.945
	c62.812-51.127,129.615-122.461,193.887-186.733c15.293-15.293,29.453-29.688,42.583-43.036c7.389,6.28,15.363,13.598,23.791,22.026
	c8.428,8.427,15.746,16.402,22.026,23.791c-13.348,13.129-27.743,27.29-43.036,42.583
	C295.989,261.375,224.656,328.178,173.529,390.99z"/>
<path style="fill:#EFEDEE;" d="M429.603,38.097c-7.529,6.623-15.637,14.231-24.384,22.729l16.499,30.625l29.458,15.332
	c8.498-8.748,16.105-16.855,22.728-24.384V47.451L429.603,38.097z"/>
<g>
	<path style="fill:#596674;" d="M426.932,131.198c-6.819-7.928-14.301-15.972-22.229-23.9s-15.972-15.41-23.9-22.229
		c8.654-8.716,16.769-16.816,24.416-24.244c7.396,6.303,15.41,13.645,23.861,22.096s15.793,16.465,22.096,23.861
		C443.756,114.421,435.648,122.544,426.932,131.198z"/>
	<path style="fill:#596674;" d="M473.904,82.398c-6.6-7.6-13.793-15.309-21.393-22.908s-15.309-14.793-22.908-21.393
		c32.054-28.258,53.471-38.662,68.217-23.916S502.162,50.344,473.904,82.398z"/>
</g>
<path d="M482.217,0c-14.558,0-31.784,9.709-57.598,32.465c-7.724,6.809-88.658,87.492-88.722,87.438
	c-13.408-11.338-33.558-10.699-46.195,1.938L161.439,250.104c-12.417,12.417-13.254,32.089-2.523,45.491
	c-14.404,13.189-28.665,25.661-42.669,37.06c-9.211,7.495-18.142,14.39-26.55,20.5c-29.745,21.631-55.497,35.566-78.729,42.599
	c-14.992,4.542-11.315,30.148-7.85,40.548c4.889,14.671,15.078,30.248,28.691,43.86C51.446,499.8,75.006,512,93.293,512
	c7.126,0,20.426-2.753,22.923-10.998c7.034-23.232,20.969-48.986,42.604-78.736c6.107-8.404,13.001-17.334,20.493-26.542
	c14.384-17.67,31.234-36.716,51.514-58.226c2.841-3.014,2.702-7.761-0.312-10.602c-3.014-2.842-7.76-2.701-10.602,0.312
	c-18.822,19.964-34.749,37.859-48.531,54.534c-0.041-0.021-0.081-0.041-0.122-0.062c-8.674-4.518-16.504-10.668-23.405-17.568
	c-6.909-6.909-13.025-14.731-17.563-23.403c-0.022-0.042-0.042-0.084-0.064-0.126c12.895-10.66,25.97-22.158,39.144-34.229
	l8.789,8.789c-1.396,5.092-0.105,10.767,3.895,14.768c5.931,5.931,15.548,5.931,21.479,0s5.931-15.548,0-21.479
	c-4-4-9.676-5.292-14.768-3.895l-8.38-8.38c7.688-7.194,15.403-14.56,23.129-22.047l7.84,7.84
	c-1.396,5.092-0.105,10.767,3.895,14.767c5.931,5.931,15.548,5.931,21.479,0s5.931-15.547,0-21.479c-4-4-9.675-5.291-14.767-3.895
	l-7.709-7.709c7.561-7.421,15.126-14.934,22.679-22.497l7.617,7.617c-1.396,5.092-0.105,10.767,3.895,14.767
	c5.931,5.931,15.548,5.931,21.479,0s5.931-15.548,0-21.479c-4.001-4-9.676-5.291-14.768-3.895l-7.641-7.641
	c7.508-7.564,14.999-15.152,22.457-22.719l7.772,7.772c-1.396,5.092-0.105,10.767,3.895,14.768c5.931,5.931,15.548,5.931,21.479,0
	s5.931-15.548,0-21.479c-4-4.001-9.675-5.292-14.767-3.895l-7.851-7.851c7.406-7.519,14.926-15.148,22.439-22.736l8,8
	c-1.396,5.092-0.105,10.767,3.895,14.767c5.931,5.931,15.548,5.931,21.479,0s5.931-15.548,0-21.479
	c-4.001-4.001-9.676-5.292-14.768-3.895l-8.038-8.038c2.227-2.238,4.45-4.468,6.662-6.679c5.419-5.419,10.718-10.749,15.878-15.957
	l8.086,8.086c-1.396,5.092-0.105,10.767,3.895,14.768c5.931,5.931,15.548,5.931,21.479,0s5.931-15.548,0-21.479
	c-4-4.001-9.675-5.292-14.768-3.895l-8.147-8.147c3.86-3.912,7.627-7.738,11.26-11.43c0.073,0.064,0.145,0.127,0.218,0.191
	c6.128,5.429,12.076,11.065,17.865,16.854c5.794,5.794,11.438,11.746,16.869,17.883c0.059,0.067,0.117,0.134,0.176,0.2
	c-11.693,11.505-24.605,24.234-38.055,37.684c-13.959,13.959-28.528,28.311-42.617,42.189c-24.09,23.73-49,48.268-72.387,72.331
	c-2.887,2.97-2.819,7.718,0.151,10.605c2.97,2.887,7.718,2.82,10.605-0.151c37.659-38.747,76.65-76.165,114.854-114.369
	c38.115-38.113,78.299-74.602,113.973-115.057c15.729-17.842,25.088-31.464,29.454-42.867c5.463-14.267,3.488-26.246-5.87-35.603
	C497.201,2.987,490.178,0,482.217,0z M429.595,48.131c0.14,0.125,0.279,0.245,0.418,0.37c5.867,5.272,11.587,10.714,17.164,16.292
	c5.583,5.583,11.027,11.311,16.308,17.183c0.12,0.133,0.234,0.266,0.354,0.399c-3.702,4.089-7.817,8.501-12.415,13.311
	c-0.083-0.093-0.17-0.187-0.253-0.28c-5.434-6.087-11.049-12.018-16.819-17.788c-5.795-5.795-11.746-11.44-17.867-16.89
	c-0.067-0.06-0.134-0.122-0.201-0.181C421.093,55.95,425.504,51.836,429.595,48.131z M405.484,71.021
	c0.081,0.072,0.161,0.142,0.242,0.213c6.172,5.482,12.182,11.152,18.019,16.989s11.509,11.841,16.987,18.017
	c0.073,0.082,0.144,0.164,0.216,0.245c-3.998,4.069-8.446,8.545-13.677,13.764c0.49-0.537-15.485-16.444-17.296-18.255
	c-1.428-1.428-17.94-17.612-18.255-17.295C396.932,79.474,401.409,75.025,405.484,71.021z M102.508,494.565
	c-2.257,1.617-5.347,2.435-9.215,2.435c-14.236,0-34.207-10.773-50.879-27.444c-11.998-11.998-20.9-25.492-25.066-37.996
	c-3.217-9.655-3.171-17.571,0.061-22.099c22.447-7.119,46.826-20.01,74.264-39.28c0.08,0.131,0.167,0.261,0.247,0.392
	c12.014,19.609,28.697,36.443,48.174,48.67c0.432,0.271,1.563,0.975,1.696,1.055C122.518,447.738,109.627,472.117,102.508,494.565z
	 M150.624,408.101c-0.071-0.042-0.142-0.083-0.212-0.124c-15.813-9.379-29.736-22.49-40.477-37.383
	c-2.108-2.923-4.102-5.934-5.94-9.035c-0.042-0.071-0.083-0.142-0.125-0.212c4.708-3.512,9.553-7.24,14.494-11.154
	c0.069,0.123,0.147,0.247,0.217,0.37c9.051,15.981,22.574,29.918,37.972,39.88c1.583,1.024,5.093,3.095,5.223,3.168
	C157.862,398.549,154.136,403.393,150.624,408.101z M169.986,285.345c-5.313-7.479-4.64-17.935,2.06-24.634l9.036-9.036
	l11.827,11.827C185.247,270.924,177.601,278.221,169.986,285.345z M203.648,253.027l-11.959-11.959l22.588-22.588l12.051,12.051
	C218.771,238.096,211.206,245.61,203.648,253.027z M236.911,219.901l-12.028-12.028l22.588-22.588l11.896,11.896
	C251.908,204.75,244.418,212.338,236.911,219.901z M269.895,186.496l-11.818-11.818l22.588-22.588l11.672,11.672
	C284.817,171.357,277.305,178.974,269.895,186.496z M309.564,146.436c-2.208,2.208-4.436,4.449-6.658,6.682l-11.634-11.634
	l9.036-9.036c6.803-6.802,17.477-7.39,24.976-1.809C320.172,135.798,314.926,141.074,309.564,146.436z M403.69,143.576
	c0.488-0.534-15.302-16.306-17.043-18.047c-0.035-0.035-0.068-0.069-0.103-0.104c-0.035-0.035-0.069-0.068-0.104-0.102
	c-5.804-5.8-11.763-11.453-17.895-16.906c-0.051-0.045-0.102-0.093-0.153-0.138c4.366-4.432,8.613-8.741,12.742-12.919
	c0.077,0.069,0.153,0.135,0.23,0.204c6.156,5.51,12.161,11.194,18.003,17.036c5.848,5.848,11.544,11.851,17.052,18.021
	c0.063,0.071,0.125,0.141,0.188,0.211C412.431,134.964,408.122,139.211,403.69,143.576z M473.79,70.999
	c0.652-0.86-14.555-15.361-16.007-16.812c-1.248-1.248-16.312-16.448-16.824-16.016c11.271-9.505,36.372-33.84,51.526-18.686
	C499.134,26.132,501.863,37.523,473.79,70.999z"/>
<g>
</g>
<g>
</g>
<g>
</g>
<g>
</g>
<g>
</g>
<g>
</g>
<g>
</g>
<g>
</g>
<g>
</g>
<g>
</g>
<g>
</g>
<g>
</g>
<g>
</g>
<g>
</g>
<g>
</g>
</svg>
